<?xml version="1.0" encoding="UTF-8"?><svg version="1.1" xmlns="http://www.w3.org/2000/svg" xmlns:xlink="http://www.w3.org/1999/xlink" viewBox="0 0 1920 1080" width="1920" height="1080" x="0px" y="0px">
              
              <!-- ITEM 0 -->
<g>
    <defs>
        
        <clipPath id="clip-path-id-viewbox-item-0">
            <rect x="0.0" y="0.0" width="358.371" height="463.756"/>
        </clipPath>
    </defs>
    <g transform="translate(1098.0 10.0) rotate(0.0 413.5 534.5) scale(2.307664403648733 2.3050914705146672)">
      <g clip-path="url(#clip-path-id-viewbox-item-0)" transform="translate(-0.0 -0.0)">
      <defs><linearGradient id="linear-gradient-i0" x1="-2063.321" y1="-765.567" x2="-2063.321" y2="-422.991" gradientTransform="matrix(-1, 0, 0, 1, -1884.395, 792)" gradientUnits="userSpaceOnUse"><stop offset="0" stop-color="#c0ddfc"/><stop offset="0.996" stop-color="#fff"/></linearGradient><linearGradient id="linear-gradient-2-i0" x1="-1595.748" y1="-424.495" x2="-1595.748" y2="-332.104" gradientTransform="matrix(-1, 0, 0, 1, -1341.842, 792)" gradientUnits="userSpaceOnUse"><stop offset="0" stop-color="#ffd8a1"/><stop offset="0.996" stop-color="#fff"/></linearGradient></defs><title>object_20</title><g id="Layer_2-i0" data-name="Layer 2"><g id="Layer_1-2-i0" data-name="Layer 1"><path d="M357.853,19.843V348.226A114.491,114.491,0,0,1,242.027,462.72L0,463.756c60.022-34.933,67.289-181.991,136.785-207.895s46.478-136.252,102.652-146.244,66.461-61.5,75.194-88.146C323.882-6.579,357.853-7.171,357.853,19.843Z" fill="url(#linear-gradient-i0)"/><path d="M149.441,463.756c46.182,0,67.275-67.794,121.746-61.207,16.356,2,34.563-31.528,42.038-44.11,12.36-20.945,45.146-12.507,45.146,11.694v93.623Z" fill="url(#linear-gradient-2-i0)"/></g></g>
      </g>
    </g>
</g>

<!-- ITEM 1 -->
<g>
    <defs>
        
        <clipPath id="clip-path-id-viewbox-item-1">
            <rect x="0.0" y="0.0" width="305.811" height="359.879"/>
        </clipPath>
    </defs>
    <g transform="translate(0.0 16.0) rotate(0.0 451.5 531.5) scale(2.95280418297576 2.953770572886998)">
      <g clip-path="url(#clip-path-id-viewbox-item-1)" transform="translate(-0.0 -0.0)">
      <defs><linearGradient id="linear-gradient-i1" x1="-2396.576" y1="1759.478" x2="-2396.576" y2="1527.37" gradientTransform="translate(-2243.67 1829.758) rotate(180)" gradientUnits="userSpaceOnUse"><stop offset="0" stop-color="#c0ddfc"/><stop offset="0.996" stop-color="#fff"/></linearGradient></defs><title>object_11</title><g id="Layer_2-i1" data-name="Layer 2"><g id="Layer_1-2-i1" data-name="Layer 1"><path d="M0,15.425C0-3.082,26.65-5.895,30.5,12.242c5.4,25.613,12.288,55.373,46.49,66.995,38.346,13.029,28.648,61.37,99.272,80.765s7.254,173.227,129.549,199.877H0Z" fill="url(#linear-gradient-i1)"/></g></g>
      </g>
    </g>
</g>

<!-- ITEM 2 -->
<g>
    <defs>
        
        <clipPath id="clip-path-id-viewbox-item-2">
            <rect x="0.0" y="0.0" width="598.108" height="462.713"/>
        </clipPath>
    </defs>
    <g transform="translate(80.0 -341.0) rotate(115.91202665445734 298.5 231.0) scale(0.9981474917573415 0.9984590880308095)">
      <g clip-path="url(#clip-path-id-viewbox-item-2)" transform="translate(-0.0 -0.0)">
      
<path style="fill:#F7EDE1;" d="M570.088,370.026c-81.7,60.2-181.8,96.3-283.9,92.4c-101.1-3.9-237.2-35-276.8-141.9  c-14.9-40.4-14.4-82.6,18.7-114.1c19.3-18.4,53.5-20.1,78.3-11.9c14.4,4.8,27.3,14.4,42.4,15.7c28.5,2.5,49.8-24.2,67.6-46.6  c43.8-55.3,99.6-101,162.4-133.2c41-21,87.6-36.5,132.9-28.1s87.4,47.2,86.3,93.3c-0.7,30.2-18.7,56.8-32.6,83.6s-24.1,60-9.5,86.4  c13,23.6,44.4,39.7,42.1,66.6C596.588,348.526,583.088,360.526,570.088,370.026z"/>

      </g>
    </g>
</g>

              </svg>