<svg xmlns="http://www.w3.org/2000/svg" viewBox="0 0 523 223" class="left"><g fill="none" fill-rule="nonzero"><path fill="#232323" d="M154.34.11c-.88.01-1.44.82-1.42 1.74.01.66.67 1.28 1.53 1.18 1.81-.21 3.54.18 5.21.66 3.28.94 6.71 1.19 9.97 2.31 2.72.94 5.64 1.3 8.45 2.01 1.5.37 3 .84 4.44 1.42 3.85 1.53 7.69 3.09 11.48 4.76 1.79.79 3.47 1.84 5.18 2.81.72.41 1.37.93 2.08 1.35 6.09 3.62 11.54 8.1 16.84 12.75 3.82 3.35 7.45 6.91 11.17 10.37 1.06.99 2.16 1.94 3.26 2.89 2.12 1.82 4.31 3.56 6.37 5.44 1.68 1.54 3.21 3.24 4.81 4.86 5.31 5.4 10.46 10.94 15.5 16.6 3.93 4.42 8 8.7 11.23 13.69.56.87 1.27 1.63 1.92 2.45 1.73 2.2 3.43 4.42 5.19 6.59 1.69 2.09 3.53 4.05 5.57 5.83 1.87 1.63 3.66 3.35 5.47 5.04.04.03-.02.18-.08.5-.65-.29-1.31-.44-1.94-.76-1.75-.92-3.57-1.66-5.48-2.19-.79-.22-1.55-.57-2.32-.89-4.99-2.04-10.05-3.84-15.28-5.18-4.54-1.16-9.13-1.9-13.82-1.94-.93-.01-1.86-.1-2.79-.13-1.03-.03-2.07-.07-3.09-.04-2.79.1-5.58.23-8.21.34-.35-.23-.59-.31-.67-.47-.74-1.45-1.99-1.89-3.53-2.17-2.23-.39-4.42-1.05-6.62-1.64-2.1-.57-4.15-1.4-6.27-1.75-2.37-.39-4.61-1.19-6.9-1.82-1.4-.38-2.79-.81-4.21-1.06-2.84-.51-5.71-.88-8.56-1.37-4.18-.71-13.68-1.6-17.94-1.57-.9 0-1.63-.2-2.21-.88-.27-.32-.51-.65-.79-.96-3.31-3.64-7.29-6.42-11.49-8.93-1.24-.74-2.47-1.52-3.72-2.23-.8-.45-1.62-.93-2.49-1.23-1.76-.59-3.59-1-5.34-1.63-1.97-.7-3.99-1.09-6.03-1.46-1.02-.19-2.04-.37-3.06-.52-6.38-.96-12.76-1.55-19.16-.18-3.45.74-6.86 1.53-10.08 3.07-6.18 2.94-12.4 5.78-18.6 8.66-.38.17-.78.29-1.15.45-2.29.97-4.59 1.9-6.85 2.94-1.71.78-3.46 1.51-5.32 1.64-2.2.15-4.27.76-6.37 1.3-1.5.39-3.04.62-4.57.84-1.04.15-2.04-.05-2.99-.62-.79-.49-1.65-.88-2.51-1.23a1.77 1.77 0 0 0-1.18.01c-.41.17-.44.64-.33 1.08.12.5.19 1.02.32 1.52.36 1.35.73 1.74 2.18 1.7 1.81-.05 3.48.36 5.11 1.07.76.33 1.55.6 2.33.87 4.27 1.48 8.64 2.15 13.15 1.5 3.18-.46 6.34-.95 9.52-1.43 1.33-.2 2.68-.33 3.98-.67 3.2-.85 6.4-1.74 9.56-2.75 7.12-2.26 14.35-4 21.74-5.12 1.86-.28 3.68-.43 5.55-.45 2.93-.04 5.76.57 8.62 1 4.62.67 8.63 2.78 12.57 5.1.37.22.64.49.44 1.01-1.76.56-3.59.82-5.46.91-1.55.08-3.11.17-4.64.41-3.99.65-7.96 1.38-11.93 2.09-.2.03-.39.12-.59.19-.58.22-.94.92-.78 1.51.16.61.64.78 1.18.79.41.01.82-.08 1.23-.15 2.34-.41 4.69-.83 7.03-1.24 1.02-.18 2.04-.32 3.06-.53 3.35-.7 6.82-.4 10.16-1.21 2.68-.66 5.46-.66 8.15-1.58 2.51-.85 5.28-.94 7.94-1.36.2-.03.42-.07.62-.03 1.43.32 2.81.58 4.07-.58.3-.27 1-.18 1.51-.15 2.07.12 4.13.35 6.2.41 4.79.14 9.48 1.06 14.21 1.61 1.33.15 2.65.51 3.94.88 5.08 1.42 10.14 2.89 15.22 4.33 2.58.74 5.17 1.46 8.15 2.3-1.51.56-2.67.9-3.88 1.08-4.71.73-9.39 1.61-13.92 3.14-2.06.69-4.08 1.51-6.1 2.3-1.54.6-3.02 1.43-4.6 1.84-3.22.83-6.3 2.06-9.41 3.2-1.27.47-2.44 1.1-3.6 1.79-4.4 2.62-9.01 4.67-14.2 5.08-.31.02-.61.12-.92.18-3.47.61-6.94 1.15-10.48 1.13-4.87-.03-9.75 0-14.62.17-5.9.21-11.79.67-17.69.09-.23-.02-.66.25-.72.46-.09.36-.04.8.1 1.14.1.24.46.49.72.52 2.14.26 4.26.98 6.46.44.6-.14 1.23-.2 1.84-.21 6.64-.12 13.28-.31 19.92-.3 4.58.01 9.12-.15 13.63-.91.23-.04.5.17.96.34-1.63 2.47-3.35 4.64-5.74 6.17-1.66 1.06-3.46 1.89-5.11 2.96-2.95 1.91-5.8 3.99-8.95 5.59-.27.14-.49.38-.71.6-1.43 1.4-3.15 2.36-4.98 3.13-1.73.73-3.36 1.66-4.81 2.82-1.49 1.19-3.17 1.92-4.88 2.67-1.99.88-3.99 1.77-5.84 2.9-2.35 1.43-4.88 2.2-7.56 2.62-3.27.51-6.57.88-9.8 1.57-8.92 1.91-17.82 3.89-26.82 5.36-1.22.2-2.46.41-3.7.42-4.73.05-9.17 1.56-13.71 2.61-.2.05-.39.14-.58.22-1 .44-1.13 1.27-.3 2.23.18.21.53.28.66.34 4.28-1.42 8.5-2.43 12.83-2.96 2.16-.26 4.33-.42 6.5-.71 2.36-.31 4.7-.7 7.06-1.03.17-.02.36.13.59.22-1.68 1.88-3.57 3.45-5.83 4.58-1.29.65-2.53 1.42-3.73 2.24-4.65 3.18-9.73 5.52-15 7.41-3.21 1.15-6.47 2.17-9.68 3.37-1.75.66-3.5 1.26-5.17 2.1-1.02.51-2.03 1.04-3.06 1.51-5.79 2.64-11.18 5.88-15.83 10.29-.75.71-1.65 1.25-2.49 1.86-1.68 1.22-3.49 2.2-5.39 3.05-2.74 1.23-5.41 2.62-8.09 3.98-3.42 1.72-6.82 3.44-10.48 4.64-3.63 1.18-7.1 2.85-10.9 3.56-1.22.23-1.96 1.09-2.62 2.05-.58.83-.39 1.5.55 2.03 1.67.94 3.5 1.2 5.35 1.49 3.09.49 6.19-.2 9.27.14 4.78-.88 9.56-1.75 14.33-2.64.71-.13 1.42-.29 2.1-.54 1.74-.66 3.45-1.4 5.19-2.08 2.23-.86 4.35-1.95 6.31-3.32.84-.59 1.78-1.06 2.71-1.5 2.99-1.43 6.05-2.72 8.98-4.26 4.33-2.27 8.8-4.15 13.4-5.77 2.15-.75 4.29-1.53 6.46-2.24 2.45-.81 4.86-1.79 7.44-2.18 4.52-.68 8.92-1.83 13.27-3.21 6.14-1.95 12.03-4.49 17.43-8.04 1.73-1.14 3.63-2.1 5.13-3.48 3.81-3.51 7.44-7.22 10.09-11.74.78-1.34 1.68-2.64 2.24-4.07.87-2.2 1.49-4.5 2.17-6.62 2.88-2.13 5.86-3.74 9.07-4.99 1.42-.55 2.67-1.56 4-2.36 1.33-.8 2.59-1.76 4-2.35 1.85-.77 3.47-1.81 5.06-2.99 1.33-.98 2.76-1.82 4.16-2.71.52-.33 1.15-.55 1.6-.96 2.33-2.13 5.1-3.57 7.84-5.02 2.92-1.56 5.14-3.8 7.07-6.42.91-1.25 1.88-2.45 2.6-3.39 4.16-1.23 7.95-2.36 11.23-4.61 3.66-2.5 7.85-3.68 11.94-5.11 2.64-.92 5.4-1.46 7.82-2.97.43-.27.94-.45 1.43-.59 3.58-1.05 7.11-2.36 10.77-3.06 4.77-.92 9.52-1.93 14.4-2.35 4.15-.36 8.27-.56 12.41-.39 3.21.12 6.47.22 9.59.86a96.94 96.94 0 0 1 14.62 4.24c2.32.87 4.57 1.95 6.92 2.78 5.3 1.86 10.37 4.17 15.03 7.35 1.45.99 2.98 1.84 4.71 2.34 1.48.42 2.96.97 4.32 1.7 2.56 1.35 5.02 2.87 7.54 4.33 1.68-.31 1.7-.36 2.67.04 1.33.56 2.65 1.17 3.94 1.83 4.14 2.13 8.08 4.66 12.54 6.15 1.16.39 2.19 1.17 3.31 1.71 1.21.58 2.44 1.13 3.69 1.63 1.92.77 3.88 1.46 5.79 2.25.95.39 1.79 1.07 2.76 1.36 3.17.93 6.17 2.39 9.48 2.89.81.12 1.58.49 2.38.7 1.2.31 2.41.63 3.63.84 2.56.44 5.12.75 7.74.47.82-.09 1.76-.31 2.99.48-1.43.68-2.63 1-3.72 1.5-1.87.87-3.79 1.7-5.76 2.27-4.77 1.38-9.7 2.09-14.57 3.03-3.14.61-6.38.72-9.58 1.05-.82.09-1.67.08-2.46.29-3.05.81-6.16.8-9.27.7-.51-.02-1.03-.09-1.55-.09-7.36 0-14.73 0-22.09.01-2.07 0-4.14.02-6.21.04-3.01.03-6 .25-8.98.63-3.49.44-7.02.57-10.52.94-5.77.62-11.53 1.32-17.28 2.02-1.44.17-2.88.4-4.29.7-3.44.76-6.86 1.58-10.29 2.38-1.11.26-2.23.47-3.31.82-4.23 1.37-8.53 2.49-12.84 3.58-2.93.73-5.76 1.7-8.51 2.94-1.5.68-3.1 1.19-4.69 1.63-3.51.96-6.85 2.34-10.15 3.81-1.8.8-3.5 1.81-5.47 2.16-.39.07-.83.27-1.09.56-.24.27-.42.77-.33 1.08.09.31.54.68.86.71.49.05 1.01-.13 1.5-.28 2.37-.75 4.56-1.96 6.87-2.86 3.66-1.42 7.22-3.16 11.14-3.86.7-.13 1.38-.46 2.04-.74 3.73-1.58 7.52-2.94 11.46-3.9 2.31-.56 4.59-1.27 6.87-1.97 7.84-2.4 15.78-4.41 23.96-5.1 5.57-.47 11.09-1.41 16.7-1.58 4.13-.12 8.22-.94 12.36-1.29 4.46-.39 8.9-.41 13.35-.17 1.44.08 2.89.03 4.33.02.52 0 1.04-.1 1.55-.04.22.03.43.33.6.54.02.03-.2.33-.35.39-.28.11-.6.14-.9.21-5.66 1.25-11.27 2.68-16.61 4.99-3.6 1.56-7.41 2.73-10.58 5.18-.24.19-.53.34-.82.43-5.39 1.74-9.82 5.31-14.8 7.84-.54.28-1 .74-1.48 1.13-3.65 2.9-7.28 5.83-10.96 8.7-4.24 3.31-8.52 6.56-13.24 9.18-1.8 1-3.44 2.29-5.11 3.52-1.25.92-2.46 1.85-3.86 2.58a89.64 89.64 0 0 0-7.21 4.25 79.26 79.26 0 0 1-8.37 4.74c-3.65 1.77-7.53 2.92-11.34 4.25a98.658 98.658 0 0 1-9.23 2.73c-3.22.79-6.58 1.05-9.72 2.04-3.32 1.05-6.68 1.29-10.07 1.62-.31.03-.6.15-.91.21-5.21.96-10.43 1.81-15.75 1.43-1.9-.13-3.59.45-5.3.84-.19 1.08.03 1.85.98 2.16.88.3 1.79.58 2.7.69 2.06.27 4.12.44 6.18.63 2.79.26 5.59.38 8.37.76 5.28.73 10.55.49 15.83.21 1.03-.06 2.06-.27 3.09-.35 3.51-.28 7.03-.52 10.54-.8.51-.04 1.02-.15 1.52-.27 3.51-.87 7.04-1.68 10.52-2.65 4.79-1.34 9.38-3.27 14.03-5.02 3.58-1.34 7.14-2.75 10.69-4.18.96-.38 1.87-.9 2.78-1.39 1.1-.58 2.15-1.24 3.26-1.8 3.52-1.77 7.05-3.51 10.59-5.24 2.51-1.23 4.99-2.52 7.56-3.6 4.3-1.8 8.51-3.78 12.63-5.94 1.29-.67 2.58-1.35 3.94-1.85 3.98-1.47 8-2.85 11.99-4.28 6.92-2.49 13.85-4.95 20.2-8.72 2.85-1.69 5.59-3.56 8.35-5.38 1.04-.68 2.12-1.37 2.97-2.25 2.38-2.46 5.29-4.33 7.51-6.97.66-.79 1.53-1.4 2.3-2.09.39-.34.85-.63 1.15-1.04 2.15-2.91 5.02-4.88 8.21-6.45 1.3-.64 2.72-1.11 3.87-1.96.98-.72 2-1.06 3.11-1.29 2.83-.6 5.67-1.19 8.51-1.74 5.23-1.02 10.18-2.76 14.77-5.47.44-.26.9-.61 1.39-.68 1.3-.2 2.24-.99 3.27-1.7.57-.39 1.28-.7 1.96-.81 2.71-.43 5.16-1.42 7.44-2.94 4.66-3.09 9.3-6.21 14.02-9.21 3.32-2.11 6.71-4.13 10.15-6.02 2.08-1.14 4.29-2.09 6.52-2.91 3.32-1.21 6.84-1.59 10.32-2.09.51-.07 1.03-.02 1.55-.03 6.62-.11 13.26.51 19.86-.56.31-.05.62-.05.93-.04 1.56.06 3.11-.03 4.63-.44.93-.25 1.83-.06 2.76.17 1.22.3 2.46.3 3.67-.19.67-.27 1.39-.43 2.1-.57.39-.08.86-.17 1.21-.03 2.53 1.01 5.06.61 7.61.17 1.43-.25 2.88-.46 4.32-.47 6.01-.03 12.01.05 18.02.05 4.56 0 9.12-.04 13.68-.07.52 0 1.03-.08 1.55-.14 2.88-.34 5.75-.43 8.55.24 1.71-1.04 2.38-2.61 2.82-4.45-.47-.65-.95-1.3-1.47-2.01-1.53.29-2.91-.25-4.32-.39-3.38-.35-6.79-.31-10.18-.59-2.48-.2-4.98-.04-7.46-.17-4.4-.22-8.63-1.03-12.27-3.79-.9-.69-1.93-1.21-2.94-1.73-2.67-1.37-5.35-2.72-8.04-4.05-4.82-2.39-9.65-4.77-14.49-7.14-1.21-.59-2.43-1.16-3.69-1.63-2.06-.76-4-1.7-5.76-3.01-.99-.74-2.1-1.34-3.17-1.96-4.83-2.83-9.63-5.71-14.62-8.25-2.95-1.5-5.82-3.18-8.73-4.76-3.18-1.73-6.4-3.42-9.56-5.2-4.06-2.29-8.09-4.62-12.49-6.26-2.13-.79-4.29-1.62-6.25-2.76-2.72-1.59-5.61-2.65-8.58-3.56-3.88-1.19-7.58-2.77-11.2-4.61-1.93-.98-3.95-1.87-6.03-2.48-3.97-1.17-8.01-2.11-12.02-3.16-1.9-.5-3.8-1.01-5.68-1.58-1.79-.54-3.56-1.06-5.42-1.35-2.76-.43-5.5-1.02-8.21-1.71-2.23-.57-4.47-.9-6.76-.95-4.45-.11-8.92-.16-13.38-.21-3.52-.03-7.05.02-10.56-.47-1.53-.22-3.11-.19-4.66-.18-4.46.02-8.92.05-13.38.16-1.34.03-2.67.31-4 .51-.3.04-.66.14-.84.35-.25.28-.48.7-.48 1.05 0 .36.2.87.48 1.05.41.27.97.36 1.47.46 4.48.87 8.91 1.89 13.16 3.62.86.35 1.78.55 2.69.73 1.75.35 3.35 1.06 4.91 1.89 3.02 1.61 6 3.28 9.05 4.82 3.98 2.01 8.01 3.91 12.01 5.86.93.45 1.86.89 2.76 1.4 2.44 1.37 4.82 2.86 7.3 4.15 5.62 2.92 11.05 6.13 16.45 9.43 3.09 1.89 6.16 3.83 9.27 5.71 5.4 3.27 10.82 6.52 16.24 9.77.53.32 1.1.59 1.62.93 5.05 3.33 10.66 5.51 16.13 7.96.57.25 1.17.43 1.77.61 8.4 2.63 16.78 5.33 25.22 7.84 5.66 1.69 11.43 2.92 17.34 3.38 2.38.18 4.75.4 7.12.64 3.4.34 6.79.74 10.19 1.08 3.19.32 6.39.62 9.59.89.71.06 1.44.02 2.15-.04 2.15-.19 4.3-.41 6.68-.65-.32.45-.44.81-.65.88-.78.26-1.59.59-2.39.6-1.88.01-3.71.31-5.55.62-1.02.17-2.07.22-3.1.19-1.88-.05-3.74.05-5.53.67-1.01.35-2.01.32-3.07.22-1.23-.12-2.49-.14-3.72-.02-3.9.37-7.77 1.04-11.73.97-3.94-.07-7.88.14-11.82.06-7.45-.16-14.39 1.69-20.77 5.4-4.74 2.75-9.6 5.32-14.09 8.49-3.13 2.21-6.39 4.22-9.63 6.26-1.17.74-2.24 1.92-3.93 1.25-.28-.11-.76.22-1.12.41-3.38 1.73-6.99 2.5-10.78 2.51-1.14 0-2.29.14-3.42.09-1.96-.09-3.95-.11-5.87-.47-2.85-.54-5.66-1.29-8.45-2.05-2.2-.59-4.38-1.28-6.52-2.04-.96-.34-1.92-.87-2.69-1.53-1.83-1.57-3.9-2.71-6.04-3.77-.83-.41-1.62-.92-2.41-1.42-4.65-2.95-8.77-6.59-12.8-10.33-2.58-2.4-5.07-4.9-7.5-7.45-2.08-2.17-4.19-4.33-5.99-6.72-3.23-4.31-6.14-8.86-8.86-13.51-2.77-4.73-5.31-9.62-8.66-14-.56-.73-.93-1.62-1.37-2.44-.34-.64-.59-1.33-.98-1.94-2.87-4.45-5.17-9.21-7.69-13.85-1.93-3.55-3.9-7.09-6.66-10.1-1.26-1.37-2.45-2.81-3.71-4.19-1.89-2.06-3.73-4.18-5.75-6.1-3.46-3.28-7-6.49-10.59-9.62-2.5-2.18-5.15-4.21-8.06-5.83-3.26-1.82-6.55-3.56-9.83-5.34-1.18-.64-2.29-1.42-3.51-1.97-5.4-2.45-11.01-4.23-16.85-5.26-1.32-.23-2.67-.32-3.99-.55-2.95-.53-5.89-1.16-8.85-1.66-3.57-.6-7.14-1.18-10.7-1.8-2.64-.46-5.37-.54-8.06-.52-3.23.03-6.41-.37-9.6-.69-5.35-.53-10.67-1.36-16.02-1.96-1.89-.16-3.77-.13-5.63-.1z"/><path fill="#EBA91F" d="M472.59 104.24c1.36.57 2.82.92 4.24 1.43.15-.71.46-1.36.9-1.91-1.84-.6-3.66-1.24-5.45-1.99-2.67-1.12-5.45-1.96-8.14-3.03-4.23-1.68-8.43-3.46-12.65-5.18-1.63-.67-3.29-1.24-4.74-2.29-2.83-.4-5.1-2.18-7.7-3.16-.78-.3-1.33-.8-1.86-1.52-1.34-1.84-2.86-3.55-4.33-5.29-.24-.29-.6-.47-1.15-.89-.16 1.31.59 1.97.91 2.76.29.73 1.12 1.21 1.02 2.12-.22.06-.44.21-.57.15-3.01-1.37-6.02-2.77-8.95-4.12-.85-2.69-.86-2.67-3.07-4.99-1.06-1.12-2.04-2.33-3.05-3.48-.56.27-.53.68-.32 1.03.6.97 1.23 1.91 1.87 2.86.62.92 1.44 1.73 1.85 3.03-.44-.05-.72-.02-.94-.11-3.16-1.32-6.31-2.63-9.44-4-.64-.28-1.21-.77-1.73-1.24-2.85-2.59-5.32-5.52-7.79-8.45-.2-.23-.29-.55-.85-.59-.01.24-.12.53-.02.7.83 1.43 1.7 2.84 2.56 4.25.26.43.54.86.95 1.53-.61.03-1.03.16-1.34.04-1.35-.54-2.66-1.16-3.99-1.73-.66-.28-1.33-.57-2.03-.75-.95-.24-1.72-.64-2.19-1.56-.67-1.31-1.78-2.27-2.76-3.34-1.81-2-3.54-4.07-5.31-6.1-.24-.27-.55-.49-.95-.84.1 1.73.61 2.74 2.41 5.01 1.15 1.46 2.28 2.94 3.42 4.42-.26.15-.44.33-.55.3-1.09-.34-2.17-.71-3.43-1.13-.4-1.57-1.59-2.71-2.8-3.82-2.44-2.25-4.88-4.49-7.34-6.72-.13-.12-.35-.13-.67-.23 0 .32-.11.68.02.85.69.91 1.4 1.8 2.17 2.64 1.49 1.59 3.03 3.13 4.54 4.7.26.27.67.51.29 1.16-1.09-.43-2.2-.94-3.35-1.29-1.19-.36-2.36-.73-3.4-1.47-.32-.23-.75-.37-1.15-.4-1.67-.11-2.79-1.1-4.01-2.13-2.93-2.48-5.69-5.13-8.5-7.73-.12-.11-.37-.06-.56-.09-.08.07-.23.18-.23.2.2.35.39.73.65 1.03 1.83 2.1 3.67 4.19 5.5 6.28-.2.54-.6.52-1 .4-2.08-.63-4.16-1.27-6.39-1.95-.44-1.33-1.23-2.45-2.36-3.41-2.37-2.01-4.45-4.33-6.51-6.66-.66-.74-1.24-1.62-2.2-2.04-.12.17-.24.3-.22.33.96 1.46 1.84 2.99 2.93 4.35 1.54 1.93 3.23 3.74 5.02 5.78-.41.05-.66.15-.86.08-4.69-1.65-9.37-3.32-14.05-4.98-1.37-.48-2.72-1.02-4.13-1.35-.88-.21-1.84-.09-2.76-.07-.13 0-.34.25-.37.42-.03.17.07.47.2.53.84.39 1.68.79 2.56 1.07 5.03 1.62 10.11 3.06 15.02 5.06 1.24.5 2.59.73 3.87 1.14.35.11.63.43 1.02.71-1.83 1.2-4.01.78-5.72 1.94 1.65.51 2.58.66 4.49.27 1.47-.3 3.12-.21 4.36-1.5 1.96.89 4.05 1.42 6.19 1.86 1.9.39 3.72 1.14 5.73 1.77-1.21 1.41-2.92 1.22-4.3 1.75-1.42.54-3.03.61-4.56.85-1.51.24-3.02.43-4.71.67 1.53 1.02 3.04 1.04 8.46.19 2.87-.45 5.73-.98 8.29-2.23 2.74.74 11.89 4.33 13.89 5.45-1.44 1.24-1.52 1.25-3.33 1.79-1.78.54-3.55 1.13-5.32 1.73-.27.09-.49.34-.74.52.14.09.23.21.31.2 3.53-.24 6.96-.98 10.18-2.45 1.53-.7 2.94-.87 4.48-.22 3.05 1.29 6.12 2.54 9.18 3.81.28.11.52.29.86.49-.78 1.12-1.87.96-2.61 1.46-.68.46-1.47.78-2.24 1.07-.87.33-1.78.56-2.68.82-.8.23-1.59.47-2.4.63-.91.18-1.83.29-2.58 1.11.35.11.64.29.89.26 1.74-.23 3.52-.35 5.21-.81 3.19-.88 6.32-1.96 9.48-2.96 5.77 1.91 8.75 3.22 10.95 4.84-.18.81-.78 1.17-1.5 1.37-3.79 1.04-7.59 2.07-11.38 3.11-.98.27-1.94.56-2.94.85.16.3.27.63.34.62 1.44-.12 2.92-.11 4.3-.47 4.4-1.15 8.98-1.73 13.07-3.91.81-.43 1.59-.32 2.38.06 1.68.81 3.37 1.61 5.05 2.41 1.22.58 2.45 1.12 3.64 1.73.32.16.54.51.96.93-4.08 2.38-8.28 3.89-12.58 5.17 5.6-.09 10.67-2.04 15.7-4.21 2.34 1.16 4.8 1.92 7.16 3.43-2.92 2.88-6.86 3.13-10.2 4.83.9.7 1.75.43 2.49.29 2.54-.49 5.03-1.2 7.41-2.25.96-.42 1.79-.96 2.19-1.91 3.31.89 6.23 2.29 9.3 3.94-2.1 1.57-4.5 1.92-6.97 3.14 3.51.25 3.59.23 9.91-2.07 2.32.87 4.73 1.78 7.15 2.69 2.36.84 4.71 1.66 7 2.61zM316.06 162.13c-1.41 2.88-2.52 5.91-4.51 8.43.23.58.6.62.92.26 2.11-2.44 3.83-5.15 5.34-7.99.14-.27.33-.59.31-.87-.15-2.15 1.41-3.08 2.94-3.86 1.56-.79 3.27-1.3 4.91-1.95l3.06-1.23c-.46-.36-.83-.82-1.08-1.35-.59.26-1.19.49-1.8.67-2.8.81-5.46 1.94-7.9 3.37-5.92-.69-11.56-.55-14.8 1.22.33.13.57.31.8.3.93-.02 1.9.05 2.78-.17 2.41-.61 4.7.12 7.24.25-.48 1.07-1.13 1.12-1.71 1.31-1.87.64-3.69 1.35-5.28 2.56-.49.37-1.11.58-1.61.94-.9.65-1.93.83-2.96.67-1.46-.23-2.87.03-4.31.1-1.74.09-3.5.02-5.17.03-.32.71.08.93.45.99 1.02.15 2.06.21 3.09.31 1.02.09 2.04.19 2.95.27.37.65.11.97-.29 1.14-1.52.66-3.04 1.33-4.33 2.4-.51.42-1.1.5-1.75.45-3.2-.29-6.39-.56-9.59-.83-.88-.08-1.76-.52-2.81.07.89 1.01 2.11 1.01 3.13 1.34.98.32 2.03.38 3.03.65 1.07.28 2.29-.02 3.4.87-1.9 1.59-3.91 2.86-6.07 3.66-1.9.71-4.04.88-6.09 1.02-2.06.14-4.14-.07-6.21-.09-.36 0-.72.13-1.3.25 1.86 1.04 1.86 1.06 3.25 1.18 1.03.09 2.07.11 3.1.19.41.03.83.13.98.77-1.06.98-2.62.98-3.85 1.66-1.17.65-2.36 1.26-3.46 1.85-2.37-1.33-4.81-.36-7.11-.8-.22-.04-.5.29-.78.46.88 1.55 2.82.56 3.96 1.81-2.41 1.73-5.19 2.54-7.59 3.94-3.03-1.31-4.91-1.19-7.06.48.75.59 1.58.21 2.32.3.69.09 1.39.15 2.26.24-.29.42-.39.78-.62.88-1.82.8-3.36 2.03-4.99 3.13-1.98 1.33-3.98 2.63-6.04 3.83-2.41 1.41-4.61 3.16-7.25 4.16-.18.07-.31.26-.47.4-.3.26-.25.87.11 1.06.56.29 1.12.56 1.76.22.18-.1.38-.17.55-.28 4.87-3.16 10.01-5.88 14.71-9.3.32-.23.7-.38 1.21-.66.07.42.23.73.14.91-.33.64-.78 1.22-1.09 1.87-.06.13.28.46.44.7 2.1-1.85 2.98-2.89 3.64-4.88.29-.89.74-1.47 1.57-1.76 1.74-.61 3.35-1.61 5.3-1.63 1.3-.01 2.35-.82 3.24-1.68.77-.75 1.68-1.15 2.6-1.64 3.19-1.72 6.63-2.94 9.71-4.89.62-.39 1.35-1.04 2.36-.4-1.19 2.91-4.02 4.39-5.99 6.91.49 0 .82.1.99-.02 1.36-.95 2.72-1.89 4-2.93.63-.51 1.14-1.2 1.59-1.88.6-.89.57-1.32.14-3.04 3.04-1.81 6.12-3.65 9.22-5.49.15.32.34.55.29.62-1.43 2.15-2.89 4.28-4.43 6.56.38 0 .73.11.88-.02 1.18-1.01 2.35-2.01 3.25-3.32.64-.93 1.49-1.71 2.23-2.53-.3-2.49-.07-2.91 1.97-3.92 2.22-1.11 4.42-2.24 6.58-3.34.52.28.63.65.41 1.05-.89 1.63-1.8 3.25-2.72 4.87-.25.43-.53.84-.9 1.41.48.1.88.29.98.18 1.74-1.79 3.21-3.79 4.45-5.94.51-.89.23-1.81-.49-2.65 2.93-2.33 6.53-2.95 9.3-4.86.74.23.76.64.57 1.03zM282.2 88.63c-.13-.08-.52.01-.53.05-.03.26-.09.62.06.78.34.38.75.72 1.18.99 2.02 1.27 4.02 2.56 6.09 3.73.92.52 1.77 1.08 2.43 1.89 1.97 2.41 3.92 4.83 5.88 7.23 2.36 2.89 4.64 5.85 7.11 8.64.71.8 1.55 1.47 2.34 2.2.41-.59.94-1.09 1.56-1.46-1.23-1.21-2.46-2.43-3.6-3.72-2.06-2.32-3.91-4.82-5.84-7.25-1.35-1.7-2.68-3.42-4.03-5.13-.52-.65-1.11-1.24-1.61-1.9-2.18-2.94-2.12-2.96-2.53-6.79-.2-1.85-.59-3.68-.92-5.51-.07-.4-.2-.82-.42-1.16-.13-.2-.47-.29-.73-.36-.05-.01-.28.33-.26.49.12 1.34.32 2.67.41 4.01.05.69-.08 1.4-.13 2.18-1.54-1.08-3.32-3.56-4.76-6.59.97-3.8.19-7.51-.94-11.17-.62-.13-.84.1-.81.61.12 2.48.23 4.95.35 7.37-.82.4-1.06-.13-1.34-.49-1.76-2.3-3.51-4.62-5.32-7.01.29-.86.86-1.64.63-2.79-.62-3.14-.94-6.35-1.42-9.52-.15-1-.47-1.98-.7-2.95-.76.12-.64.61-.62.93.13 2.69.3 5.38.46 8.07.07 1.13.13 2.26.22 3.82-.7-.7-1.17-1.06-1.49-1.52-1.87-2.74-3.72-5.49-5.92-7.98-.59-.67-.71-1.47-.96-2.25-.95-3.06-1.93-6.12-2.9-9.18-.03-.1-.05-.22-.12-.28-.22-.19-.47-.36-.7-.53-.13.25-.4.52-.35.73.29 1.42.64 2.83.98 4.24.12.49.39.97.06 1.48-.47.25-.8-.07-1.06-.32-1.36-1.27-2.72-2.55-4.02-3.89-.78-.8-1.69-1.6-1.04-2.98.14-.3-.09-.81-.21-1.2-1.13-3.56-2.56-7-4.3-10.31-.14-.26-.41-.45-.62-.66-.55.26-.35.59-.22.98 1.06 3.13 2.11 6.27 3.14 9.42.04.13-.14.34-.28.66-1-.43-1.44-1.44-2.2-2.09-.87-.74-1.68-1.55-2.54-2.29-.78-.68-1.59-1.33-2.42-1.95-.83-.62-1.69-1.18-2.66-1.85-.11-1.67-1.09-3-1.98-4.4-1.89-2.97-3.7-5.99-5.55-8.99-.21-.34-.35-.75-.87-.66-.07.08-.17.15-.2.24s-.04.22 0 .3c.85 1.78 1.67 3.57 2.58 5.31.86 1.65 1.82 3.25 2.72 4.87.04.07-.02.19-.05.46-.27-.1-.54-.13-.72-.28-5.74-4.72-12.29-8.08-19.02-11.07-2.25-1-4.71-1.55-7.09-2.25-.21-.06-.62.18-.76.39-.13.21-.14.68.01.84.48.52 1.01 1.03 1.61 1.38.52.31 1.16.5 1.76.57 3.06.38 5.67 1.95 8.35 3.27 2.88 1.42 5.69 2.97 8.47 4.56 1.96 1.12 3.82 2.42 5.74 3.99-2.07.68-3.56-.82-5.45-.69.13.27.18.6.36.68 2.5 1.24 5 2.49 7.55 3.62.59.26 1.39.04 2.27.04 3.19 2.19 6.08 4.96 8.76 7.84-.25.74-.68.64-1.07.6-4.05-.41-7.91-1.51-11.66-3.06-.36-.15-.73-.26-1.39-.49.18.55.19.9.36 1 .7.44 1.41.88 2.17 1.2 3.93 1.65 7.98 2.91 12.15 3.76.69.14 1.44.02 2.1.02 3.92 3.3 6.81 6.45 8.63 9.43-.31.04-.59.15-.84.1-3.06-.65-5.94-1.77-8.77-3.09-.79-.37-1.55-1.11-2.64-.64 1.63 1.78 3.82 2.54 5.83 3.57 1.56.8 3.26 1.34 4.88 2.01 1 .42 1.98.62 2.99-.24 2.22 2.69 4.36 5.17 6.03 8.25-2.32.03-3.93-1.49-5.87-2.05-1.85-.54-3.6-1.44-5.63-2.29.09.46.05.82.2.93.57.43 1.18.85 1.82 1.17 3.62 1.79 7.25 3.55 10.87 5.33.46.22 1 .39 1.33.75 2.2 2.46 4.12 5.12 6.15 8.03-1.29.17-1.93-.64-2.74-.93-.97-.35-1.92-.76-2.86-1.19-.83-.38-1.62-.83-2.8-1.44.19.62.18.93.34 1.06 2.16 1.8 4.58 3.2 7.04 4.53.82.44 1.69.79 2.49 1.27.52.31 1.05.69 1.41 1.17 1.44 1.9 2.82 3.84 4.21 5.77.1.14.1.35.15.53-1.57-.14-2.24-.37-3.63-1.22-.71-.4-1.4-.87-2.12-1.28zM162 80.3c1.92 1.01 3.84 2.04 5.7 3.15.41.24.73.62 1.07 1 .42-.62 1.13-1.03 1.93-1.03h.08c-1.1-1.46-2.44-2.56-4.11-3.33-2.26-1.04-4.49-2.12-6.74-3.18-.37-.18-.85-.23-1.13-.5-2.07-1.93-4.8-2.37-7.32-3.23-1.55-.53-3.23-.72-4.88-.86-2.06-.18-4.14-.15-6.21-.19-.62-.01-1.26.14-1.86.03-3.79-.71-7.4.33-11.04 1.03-1.93.37-3.9.49-5.75 1.26-3.73 1.56-7.64 2.58-11.52 3.7-.89.26-1.75.65-2.61 1.01-.54.23-.75.78-.55 1.28.25.63.91 1.14 1.39 1.07.2-.03.42-.05.6-.14 3.02-1.42 6.26-2.14 9.47-2.97.4-.1.79-.25 1.16-.43 3.13-1.46 6.48-2.12 9.82-2.8 2.03-.41 4.08-.68 6.13-.99.3-.05.64-.08.93 0 2.35.71 4.76.42 7.11.25 4.57-.33 9.36 1.31 13.33 3.35 1.65.88 3.35 1.65 5 2.52zM108.97 159.48c-.39.33-.76.72-1.06 1.13-1.28 1.79-2.92 3.2-4.66 4.53-5.41 4.15-11.44 7.07-17.93 9.07-3.95 1.22-8.02 2.07-11.83 3.73-3.5.6-6.75 2-10 3.29-3.54 1.4-7.06 2.93-10.48 4.63-4.34 2.16-8.45 4.76-12.61 7.25-1.51.9-3.07 1.72-4.59 2.62-.34.2-.65.52-.87.85-.24.37-.19.83.15 1.12.21.17.62.35.8.26 2.21-1.13 4.44-2.24 6.57-3.5 3.21-1.9 6.31-3.97 9.53-5.84 1.78-1.04 3.62-2.01 5.65-2.56.5-.13 1.01-.29 1.45-.54 3.89-2.27 8.22-3.41 12.45-4.75 4.83-1.53 9.63-3.16 14.51-4.54 4.96-1.4 9.85-3.2 14.11-6.31 1.5-1.09 3.11-2.03 4.66-3.06 2.1-1.38 3.85-3.12 5.36-5.12.25-.33.5-.67.81-.94 2.51-2.26 4.45-4.95 6.19-7.79-.31.09-.63.14-.96.14-.6 0-1.16-.15-1.65-.4-1.79 2.29-3.32 4.82-5.6 6.73z"/></g></svg>