<svg xmlns="http://www.w3.org/2000/svg" viewBox="0 0 762 1052" class="greenleaf"><path fill="#D6DDAF" fill-rule="evenodd" d="M285.26 642.12c-4.26 1.63-7.84 3.09-11.48 4.38-10.51 3.73-21.32 5.53-32.54 5.2-19.06-.56-38.14-.69-56.99-4.25-2.92-.55-5.95-.73-8.93-.69-2.69.04-5.08.68-6.96-2.45-.8-1.33-3.62-1.91-5.57-2.02-33.64-1.92-66.92.02-98.7 12.1-24.51 9.32-44.06 24.78-55.13 49.42-3.91 8.7-8.68 17.11-8.94 27.03-.61 23.05 7.61 42.97 23.42 59.23 20.79 21.38 44.87 38.68 72.02 51.07 12.98 5.93 26.58 10.88 40.35 14.57 25.67 6.87 51.61 12.76 77.55 18.54 29.67 6.61 57.82 17.02 84.53 31.6 12.32 6.73 25.09 12.63 37.69 18.85 20.87 10.31 39.04 24.24 55.46 40.68 14.37 14.38 29.22 28.28 43.64 42.61 5.28 5.25 9.69 11.37 14.92 16.66 7.33 7.41 14.74 14.82 22.72 21.5 10.28 8.6 21.72 6.16 32.98 1.94 1.1-.41 1.99-1.34 3.07-1.83 13.66-6.09 15.56-18.2 14.28-30.77-2.19-21.36-.89-42.52 3.26-63.3 3.6-18.05 8.6-35.94 14.56-53.35 5.61-16.42 15.2-30.88 27.12-43.69 7.5-8.06 14.96-16.2 21.71-24.88 5.46-7.03 10.13-14.73 14.58-22.47 5.68-9.86 14.79-16.24 22.86-23.65 3.85-3.54 8.47-6.22 12.72-9.33.47-.34.94-.81 1.19-1.33 6.25-13.23 19.44-19.84 28.73-30.18 13.54-15.07 27.13-30.15 41.47-44.44 12.57-12.52 21.8-27.51 32.01-41.69 5.32-7.4 7.59-17.31 10.01-26.42 2.85-10.75 4.59-21.82 6.37-32.83 1.1-6.83 2.06-13.81 1.89-20.69-.29-11.15-1.73-22.26-2.39-33.41-1.53-25.92-14.92-46.05-34.07-61.34-18.03-14.39-39.63-20.9-63.15-13.92-3.39 1.01-6.62 2.67-9.77 4.32-6.6 3.46-13.31 6.78-19.57 10.8-6.24 4.01-12.77 8.05-17.79 13.38-15.42 16.36-28.1 34.65-36.86 55.61-4.47 10.69-10.92 20.58-15.07 31.38-5.9 15.34-15.11 28.43-25.44 40.75-4.5 5.37-10.4 9.87-16.39 13.6-9.62 6-22.01 2.48-27.83-7.47-4.19-7.17-7.93-14.61-11.53-22.1-8.74-18.19-9.47-36.71-2.36-55.63 1.84-4.9 1.97-10.45 3.84-15.33 4.94-12.9 10.48-25.56 15.6-38.39 2.24-5.62 3.5-11.69 6.14-17.1 4.8-9.82 7.68-20.34 13.1-30.05 7.52-13.46 11.41-28.72 13.42-44.12 1.66-12.66 3.13-25.48 2.94-38.21-.13-8.77-2.53-17.71-5.16-26.2-3.97-12.81-10.67-24.3-20.9-33.32-9.2-8.11-20.27-13.86-32.08-14.36-8.78-.37-18.39 3.8-24.23 11.53-7.87 10.41-15.05 21.39-21.92 32.5-7.74 12.52-16.08 24.35-28.55 32.65-13.8 9.19-26.14 5.85-32.34-9.67-7.29-18.23-11.29-37.21-9.27-57 2.34-22.93 3.42-45.82.8-68.88-1.81-16.01-1.84-32.21-3.61-48.23-2.72-24.73-8.1-48.89-18.22-71.84-3.01-6.83-5.56-13.9-7.86-21-4.46-13.82-11.9-25.97-19.78-38.05-18.3-28.03-45.2-44.12-75.81-54.31C224.51.33 212.63.07 201.38.01 190.75-.06 180 1.49 169.5 3.41c-10.48 1.91-19.33 7.95-27.44 14.54-14.87 12.09-25.11 27.46-32.48 45.3-8.48 20.54-9 41.75-7.92 63.27.43 8.61 1.87 17.19 3.11 25.74 2.2 15.26 7.78 29.21 16.74 41.83 7.84 11.04 15.25 22.4 23.43 33.17 4.29 5.65 9.82 10.38 14.82 15.49 6.25 6.4 12.79 12.55 18.74 19.22 7.35 8.23 14.39 16.77 21.27 25.4 9.09 11.38 15.55 24.03 17.75 38.64.68 4.51.06 7.93-3.93 10.94-4.04 3.05-7.05 1.24-10.66-.44-32.64-15.2-66.34-18.02-100.08-5.64-15.05 5.52-29.91 12.86-41.15 25.35-10.08 11.19-15.36 23.81-12.82 39.23.71 4.32.56 8.86.28 13.26-.67 10.56 1.57 20.69 4.16 30.79.44 1.7 1.06 3.6 2.21 4.84 10.47 11.21 16.64 26.04 30.61 34.5 6.46 3.91 11.59 10.37 16.58 16.3 8.76 10.42 19.21 18.35 31.17 24.74 12.09 6.46 23.48 14.28 35.71 20.45 7.06 3.56 15.04 5.61 22.82 7.33 8.48 1.87 16.51 4.98 24.79 7.38 8.57 2.48 17.5 3.9 25.85 6.96 10.62 3.88 21.21 8.25 31.05 13.77 5.45 3.06 9.37 8.89 13.92 13.52 1.89 1.92 3.37 4.33 5.49 5.91 9.58 7.16 12.11 17.41 12.51 28.42.1 2.63-1.05 6.28-2.95 7.76-2.39 1.86-5.68 2.31-5.9 6.3-.02.28-3.32 1.07-4.47.45-5.76-3.08-5.97-3.08-7.45 3.99z"/></svg>